<svg xmlns="http://www.w3.org/2000/svg" viewBox="0 0 64 64" role="img" aria-label="统计容差区间图标">
  <defs>
    <linearGradient id="bg" x1="8" x2="56" y1="6" y2="58" gradientUnits="userSpaceOnUse">
      <stop offset="0" stop-color="#f8fafc"/>
      <stop offset="1" stop-color="#dbeafe"/>
    </linearGradient>
    <linearGradient id="curve" x1="14" x2="50" y1="18" y2="46" gradientUnits="userSpaceOnUse">
      <stop offset="0" stop-color="#06b6d4"/>
      <stop offset="1" stop-color="#2563eb"/>
    </linearGradient>
    <linearGradient id="fill" x1="18" x2="46" y1="24" y2="46" gradientUnits="userSpaceOnUse">
      <stop offset="0" stop-color="#67e8f9" stop-opacity=".28"/>
      <stop offset="1" stop-color="#93c5fd" stop-opacity=".48"/>
    </linearGradient>
  </defs>

  <rect x="4" y="4" width="56" height="56" rx="16" fill="url(#bg)"/>
  <rect x="4.75" y="4.75" width="54.5" height="54.5" rx="15.25" fill="none" stroke="#bfdbfe" stroke-width="1.5"/>

  <path d="M13 47h38" stroke="#94a3b8" stroke-width="2" stroke-linecap="round" opacity=".55"/>
  <path d="M15 47C20 46.5 23.5 41.5 27 34.5C29.3 30 30.6 27 32 27C33.4 27 34.7 30 37 34.5C40.5 41.5 44 46.5 49 47Z" fill="url(#fill)"/>
  <path d="M15 47C20 46.5 23.5 41.5 27 34.5C29.3 30 30.6 27 32 27C33.4 27 34.7 30 37 34.5C40.5 41.5 44 46.5 49 47" fill="none" stroke="url(#curve)" stroke-width="3.5" stroke-linecap="round"/>

  <path d="M23 21v28" stroke="#f43f5e" stroke-width="2.2" stroke-linecap="round" stroke-dasharray="2.5 4"/>
  <path d="M41 21v28" stroke="#f43f5e" stroke-width="2.2" stroke-linecap="round" stroke-dasharray="2.5 4"/>
  <path d="M32 17v32" stroke="#10b981" stroke-width="2.4" stroke-linecap="round"/>

  <circle cx="20" cy="51" r="2" fill="#2563eb" opacity=".75"/>
  <circle cx="26" cy="52" r="2" fill="#2563eb" opacity=".75"/>
  <circle cx="32" cy="51" r="2" fill="#2563eb" opacity=".75"/>
  <circle cx="38" cy="52" r="2" fill="#2563eb" opacity=".75"/>
  <circle cx="44" cy="51" r="2" fill="#2563eb" opacity=".75"/>

</svg>
